<svg width="10" height="8" viewBox="0 0 10 8" fill="none" xmlns="http://www.w3.org/2000/svg">
<path d="M9.73564 0.598585C9.66998 0.53238 9.59186 0.479832 9.50578 0.443971C9.41971 0.408111 9.32738 0.389648 9.23414 0.389648C9.14089 0.389648 9.04857 0.408111 8.96249 0.443971C8.87642 0.479832 8.79829 0.53238 8.73263 0.598585L3.47034 5.86794L1.25947 3.65001C1.19129 3.58415 1.11081 3.53236 1.02262 3.49761C0.93443 3.46285 0.840257 3.44581 0.745479 3.44745C0.6507 3.44909 0.557173 3.46938 0.470237 3.50716C0.383301 3.54495 0.304659 3.59949 0.2388 3.66767C0.172941 3.73584 0.121156 3.81633 0.0864007 3.90452C0.0516456 3.99271 0.0346011 4.08688 0.0362408 4.18166C0.0378806 4.27644 0.0581724 4.36996 0.0959574 4.4569C0.133742 4.54384 0.188281 4.62248 0.256458 4.68834L2.96883 7.40071C3.0345 7.46692 3.11262 7.51947 3.1987 7.55533C3.28477 7.59119 3.37709 7.60965 3.47034 7.60965C3.56359 7.60965 3.65591 7.59119 3.74199 7.55533C3.82806 7.51947 3.90618 7.46692 3.97185 7.40071L9.73564 1.63692C9.80734 1.57077 9.86456 1.49049 9.9037 1.40114C9.94283 1.31179 9.96304 1.2153 9.96304 1.11775C9.96304 1.0202 9.94283 0.923712 9.9037 0.834359C9.86456 0.745007 9.80734 0.664729 9.73564 0.598585Z" fill="white"/>
</svg>
