<svg width="18" height="18" viewBox="0 0 18 18" fill="none" xmlns="http://www.w3.org/2000/svg">
<path d="M5.25033 12.3337C5.58185 12.3337 5.89979 12.202 6.13421 11.9675C6.36863 11.7331 6.50033 11.4152 6.50033 11.0837C6.50439 11.0421 6.50439 11.0002 6.50033 10.9587L8.82533 8.63366H9.01699H9.20866L10.5503 9.97533C10.5503 9.97533 10.5503 10.017 10.5503 10.042C10.5503 10.3735 10.682 10.6915 10.9164 10.9259C11.1509 11.1603 11.4688 11.292 11.8003 11.292C12.1318 11.292 12.4498 11.1603 12.6842 10.9259C12.9186 10.6915 13.0503 10.3735 13.0503 10.042V9.97533L16.0837 6.91699C16.3309 6.91699 16.5726 6.84368 16.7781 6.70633C16.9837 6.56898 17.1439 6.37375 17.2385 6.14535C17.3331 5.91694 17.3579 5.66561 17.3096 5.42313C17.2614 5.18065 17.1424 4.95792 16.9675 4.78311C16.7927 4.60829 16.57 4.48924 16.3275 4.44101C16.085 4.39278 15.8337 4.41753 15.6053 4.51214C15.3769 4.60675 15.1817 4.76697 15.0443 4.97253C14.907 5.17809 14.8337 5.41977 14.8337 5.66699C14.8296 5.70856 14.8296 5.75042 14.8337 5.79199L11.8253 8.80033H11.692L10.2503 7.33366C10.2503 7.00214 10.1186 6.6842 9.88421 6.44978C9.64979 6.21535 9.33185 6.08366 9.00033 6.08366C8.66881 6.08366 8.35086 6.21535 8.11644 6.44978C7.88202 6.6842 7.75033 7.00214 7.75033 7.33366L5.25033 9.83366C4.91881 9.83366 4.60086 9.96535 4.36644 10.1998C4.13202 10.4342 4.00033 10.7521 4.00033 11.0837C4.00033 11.4152 4.13202 11.7331 4.36644 11.9675C4.60086 12.202 4.91881 12.3337 5.25033 12.3337ZM16.5003 15.667H2.33366V1.50033C2.33366 1.27931 2.24586 1.06735 2.08958 0.91107C1.9333 0.75479 1.72134 0.666992 1.50033 0.666992C1.27931 0.666992 1.06735 0.75479 0.91107 0.91107C0.75479 1.06735 0.666992 1.27931 0.666992 1.50033V16.5003C0.666992 16.7213 0.75479 16.9333 0.91107 17.0896C1.06735 17.2459 1.27931 17.3337 1.50033 17.3337H16.5003C16.7213 17.3337 16.9333 17.2459 17.0896 17.0896C17.2459 16.9333 17.3337 16.7213 17.3337 16.5003C17.3337 16.2793 17.2459 16.0674 17.0896 15.9111C16.9333 15.7548 16.7213 15.667 16.5003 15.667Z" fill="#A4A5A6"/>
</svg>
