<svg width="20" height="20" viewBox="0 0 20 20" fill="none" xmlns="http://www.w3.org/2000/svg">
<path fill-rule="evenodd" clip-rule="evenodd" d="M15.8332 4.99998H4.1665C3.70627 4.99998 3.33317 5.37308 3.33317 5.83331V15.8333C3.33317 16.2936 3.70627 16.6666 4.1665 16.6666H15.8332C16.2934 16.6666 16.6665 16.2935 16.6665 15.8333V5.83331C16.6665 5.37308 16.2934 4.99998 15.8332 4.99998ZM4.1665 3.33331C2.78579 3.33331 1.6665 4.4526 1.6665 5.83331V15.8333C1.6665 17.214 2.78579 18.3333 4.1665 18.3333H15.8332C17.2139 18.3333 18.3332 17.214 18.3332 15.8333V5.83331C18.3332 4.4526 17.2139 3.33331 15.8332 3.33331H4.1665Z" fill="white"/>
<path fill-rule="evenodd" clip-rule="evenodd" d="M8.33333 10C7.8731 10 7.5 10.3731 7.5 10.8333C7.5 11.2936 7.8731 11.6667 8.33333 11.6667H14.1667C14.6269 11.6667 15 11.2936 15 10.8333C15 10.3731 14.6269 10 14.1667 10H8.33333ZM5.83333 13.3333C5.3731 13.3333 5 13.7064 5 14.1667C5 14.6269 5.3731 15 5.83333 15H10.8333C11.2936 15 11.6667 14.6269 11.6667 14.1667C11.6667 13.7064 11.2936 13.3333 10.8333 13.3333H5.83333Z" fill="white"/>
<path fill-rule="evenodd" clip-rule="evenodd" d="M5.83333 1.66669C5.3731 1.66669 5 2.03978 5 2.50002V5.83335C5 6.29359 5.3731 6.66669 5.83333 6.66669C6.29357 6.66669 6.66667 6.29359 6.66667 5.83335V2.50002C6.66667 2.03978 6.29357 1.66669 5.83333 1.66669ZM14.1667 1.66669C13.7064 1.66669 13.3333 2.03978 13.3333 2.50002V5.83335C13.3333 6.29359 13.7064 6.66669 14.1667 6.66669C14.6269 6.66669 15 6.29359 15 5.83335V2.50002C15 2.03978 14.6269 1.66669 14.1667 1.66669Z" fill="white"/>
</svg>
