<svg width="20" height="20" viewBox="0 0 20 20" fill="none" xmlns="http://www.w3.org/2000/svg">
<path fill-rule="evenodd" clip-rule="evenodd" d="M5.83317 13.2511V15.8293L10.0517 13.3365L10.4926 13.3293C12.2459 13.3006 13.8237 13.1241 15.0035 12.9445C15.7481 12.8313 16.2654 12.3116 16.3778 11.6591C16.5337 10.7541 16.6665 9.60745 16.6665 8.33335C16.6665 7.05925 16.5337 5.91262 16.3778 5.00758C16.2654 4.35509 15.7481 3.83545 15.0035 3.72216C13.7131 3.52582 11.9484 3.33335 9.99984 3.33335C8.05123 3.33335 6.28657 3.52582 4.99619 3.72216C4.25162 3.83545 3.73425 4.35509 3.62186 5.00758C3.46597 5.91262 3.33317 7.05925 3.33317 8.33335C3.33317 9.60745 3.46597 10.7541 3.62186 11.6591C3.71946 12.2257 4.11529 12.6799 4.6924 12.8718L5.83317 13.2511ZM1.97939 4.72466C2.22121 3.32075 3.33711 2.28875 4.74548 2.07446C6.09493 1.86913 7.94616 1.66669 9.99984 1.66669C12.0535 1.66669 13.9047 1.86913 15.2542 2.07446C16.6626 2.28875 17.7785 3.32075 18.0203 4.72466C18.1888 5.70312 18.3332 6.94606 18.3332 8.33335C18.3332 9.72064 18.1888 10.9636 18.0203 11.942C17.7785 13.346 16.6626 14.378 15.2542 14.5923C14.0197 14.7801 12.3652 14.9655 10.5199 14.9957L5.42378 18.0071C4.86826 18.3353 4.1665 17.9349 4.1665 17.2896V14.4533C3.03864 14.0783 2.18697 13.1472 1.97939 11.942C1.81085 10.9636 1.6665 9.72064 1.6665 8.33335C1.6665 6.94606 1.81085 5.70312 1.97939 4.72466Z" fill="white"/>
<path fill-rule="evenodd" clip-rule="evenodd" d="M5.83333 5.83331C5.3731 5.83331 5 6.20641 5 6.66665C5 7.12688 5.3731 7.49998 5.83333 7.49998H14.1667C14.6269 7.49998 15 7.12688 15 6.66665C15 6.20641 14.6269 5.83331 14.1667 5.83331H5.83333ZM5.83333 9.16665C5.3731 9.16665 5 9.53974 5 9.99998C5 10.4602 5.3731 10.8333 5.83333 10.8333H9.16667C9.6269 10.8333 10 10.4602 10 9.99998C10 9.53974 9.6269 9.16665 9.16667 9.16665H5.83333Z" fill="white"/>
</svg>
